<?xml version="1.0" encoding="UTF-8"?>
<svg version="1.1" xmlns="http://www.w3.org/2000/svg" width="220" height="220">
<path d="M0 0 C1.94616211 -0.02416992 1.94616211 -0.02416992 3.93164062 -0.04882812 C12.20546022 -0.05306459 17.76909878 0.2088081 24.3125 5.5625 C28.99298782 11.28309622 30.07959299 16.50776702 29.9375 23.6875 C29.92589844 24.43555908 29.91429687 25.18361816 29.90234375 25.9543457 C29.53391359 38.4091813 29.53391359 38.4091813 24.6875 43.14453125 C17.50456112 48.78261011 10.91459067 48.55998731 2.10375977 48.60766602 C0.62677404 48.61915314 -0.85017125 48.63955328 -2.3269043 48.66918945 C-12.41168957 48.87145013 -19.46487092 48.55678128 -27.37109375 41.80859375 C-30.73061227 37.31842737 -30.37914999 31.76099093 -30.5 26.375 C-30.55865234 25.31603516 -30.61730469 24.25707031 -30.67773438 23.16601562 C-30.90377384 16.57799275 -30.40224557 12.63679027 -26.4375 7.3125 C-18.92546204 -0.60275275 -10.20587595 -0.02527458 0 0 Z M-20.4375 16.3125 C-21.17833923 19.51520794 -21.17833923 19.51520794 -21.375 23.1875 C-21.48714844 24.42242187 -21.59929687 25.65734375 -21.71484375 26.9296875 C-21.72998959 30.3542421 -21.72998959 30.3542421 -19.66796875 32.73828125 C-15.21618352 35.88025927 -9.39800015 34.31773772 -4.25 33.75 C-0.660683 33.35784397 2.03220315 33.51818321 5.5625 34.3125 C7.22657505 34.43730563 8.89440232 34.51589139 10.5625 34.5625 C11.3875 34.58828125 12.2125 34.6140625 13.0625 34.640625 C16.29666737 34.21614053 18.05811068 33.41053338 20.5625 31.3125 C21.24310088 28.49023846 21.24310088 28.49023846 21 25.375 C20.97808594 24.33472656 20.95617187 23.29445313 20.93359375 22.22265625 C20.57516133 19.41179145 20.10005374 17.67081196 18.5625 15.3125 C15.52593141 13.79421571 12.36644732 14.14965179 9.03515625 14.14453125 C7.91807533 14.13953865 7.91807533 14.13953865 6.77842712 14.13444519 C5.20230731 14.12937974 3.62617677 14.12703675 2.05004883 14.12719727 C-0.3619961 14.12501178 -2.77358297 14.10685532 -5.18554688 14.08789062 C-6.71614427 14.08495643 -8.24674383 14.08297181 -9.77734375 14.08203125 C-10.49929428 14.07484573 -11.22124481 14.06766022 -11.96507263 14.06025696 C-15.67993462 14.07721372 -17.26238256 14.19575504 -20.4375 16.3125 Z " fill="#9D26A1" transform="translate(110.4375,80.6875)"/>
<path d="M0 0 C2.05651144 2.50090702 2.62206283 3.82585747 2.69921875 7.06640625 C0.77666489 12.96223809 -3.52941003 16.38910741 -8.30078125 20.06640625 C-11.45595177 21.64399151 -13.94284745 22.01445678 -17.30078125 21.06640625 C-22.03901787 17.87216901 -27.12451653 13.92258792 -29.11328125 8.37890625 C-29.34383268 4.30583097 -28.62531673 2.39824044 -26.30078125 -0.93359375 C-19.92478815 -5.8926995 -5.96701013 -5.01471988 0 0 Z " fill="#9225AF" transform="translate(123.30078125,135.93359375)"/>
<path d="M0 0 C8.91 0 17.82 0 27 0 C26.67 0.66 26.34 1.32 26 2 C26.6492959 3.34187818 27.31731862 4.67479497 28 6 C28 6.99 28 7.98 28 9 C30.64 9.33 33.28 9.66 36 10 C36 10.33 36 10.66 36 11 C24.12 11 12.24 11 0 11 C0 11.66 0 12.32 0 13 C-1.32 13.33 -2.64 13.66 -4 14 C-4 15.65 -4 17.3 -4 19 C-4.66 19 -5.32 19 -6 19 C-6 21.64 -6 24.28 -6 27 C-6.66 26.01 -7.32 25.02 -8 24 C-8.27211123 30.66672502 -7.94409423 35.82446598 -3.375 40.9375 C-2.199375 41.9584375 -2.199375 41.9584375 -1 43 C-3.125 43.4375 -3.125 43.4375 -6 43 C-9.45893326 40.4351499 -11.6473762 37.49000317 -12.64208984 33.28686523 C-12.95892673 30.17895554 -13.07917991 27.1234029 -13.125 24 C-13.17914063 22.94554688 -13.23328125 21.89109375 -13.2890625 20.8046875 C-13.48659402 14.2367645 -12.8693617 10.34582867 -9 5 C-8.54625 4.360625 -8.0925 3.72125 -7.625 3.0625 C-5.1399346 1.43764955 -2.88453418 1.80769772 0 2 C0 1.34 0 0.68 0 0 Z " fill="#BD2D76" transform="translate(93,83)"/>
<path d="M0 0 C1.95969727 -0.0309375 1.95969727 -0.0309375 3.95898438 -0.0625 C12.29011784 -0.09638361 17.84762398 0.10828326 24.4375 5.5 C29.11996469 11.2230124 30.20063257 16.44372209 30.0625 23.625 C30.05452393 24.37088379 30.04654785 25.11676758 30.03833008 25.88525391 C29.88053246 31.99342002 29.45038574 38.27872142 25.08203125 42.9765625 C24.62183594 43.39679688 24.16164062 43.81703125 23.6875 44.25 C22.6975 43.755 22.6975 43.755 21.6875 43.25 C22.120625 42.42435547 22.120625 42.42435547 22.5625 41.58203125 C26.92085851 31.82112417 26.06604471 21.70511382 25.6875 11.25 C24.759375 10.816875 24.759375 10.816875 23.8125 10.375 C21.6875 9.25 21.6875 9.25 19.6875 7.25 C18.6975 7.58 17.7075 7.91 16.6875 8.25 C16.6875 8.91 16.6875 9.57 16.6875 10.25 C17.326875 10.559375 17.96625 10.86875 18.625 11.1875 C20.6875 12.25 20.6875 12.25 21.6875 13.25 C21.77401611 14.66570123 21.79454904 16.085595 21.78515625 17.50390625 C21.78193359 18.35791016 21.77871094 19.21191406 21.77539062 20.09179688 C21.76282227 21.43854492 21.76282227 21.43854492 21.75 22.8125 C21.74548828 23.71419922 21.74097656 24.61589844 21.73632812 25.54492188 C21.72450225 27.78001314 21.7080222 30.01497437 21.6875 32.25 C21.0275 31.92 20.3675 31.59 19.6875 31.25 C19.69910156 30.41855469 19.71070313 29.58710937 19.72265625 28.73046875 C19.73167969 27.64378906 19.74070313 26.55710937 19.75 25.4375 C19.76160156 24.35855469 19.77320313 23.27960938 19.78515625 22.16796875 C19.82374766 19.18487831 19.82374766 19.18487831 18.6875 16.25 C15.6325722 14.7225361 12.4111686 15.01008168 9.0546875 14.93359375 C7.92693405 14.9024221 7.92693405 14.9024221 6.77639771 14.87062073 C4.37185915 14.80517295 1.96721033 14.74626262 -0.4375 14.6875 C-2.06641771 14.64431023 -3.69532422 14.60069579 -5.32421875 14.55664062 C-9.32019915 14.44949649 -13.31629059 14.34821567 -17.3125 14.25 C-17.3125 13.92 -17.3125 13.59 -17.3125 13.25 C-1.9675 12.755 -1.9675 12.755 13.6875 12.25 C12.6975 11.92 11.7075 11.59 10.6875 11.25 C9.97043018 9.26751285 9.30459587 7.26584651 8.6875 5.25 C6.08661378 2.64911378 4.86612887 2.95037775 1.2421875 2.8359375 C-0.37236328 2.77792969 -0.37236328 2.77792969 -2.01953125 2.71875 C-3.14746094 2.6878125 -4.27539062 2.656875 -5.4375 2.625 C-7.14099609 2.56699219 -7.14099609 2.56699219 -8.87890625 2.5078125 C-11.68993956 2.41332399 -14.50096233 2.32776459 -17.3125 2.25 C-17.3125 2.91 -17.3125 3.57 -17.3125 4.25 C-18.9625 4.25 -20.6125 4.25 -22.3125 4.25 C-15.72010711 -1.16517988 -8.17883189 0.03199543 0 0 Z " fill="#DB78A0" transform="translate(110.3125,80.75)"/>
<path d="M0 0 C0.99 0.33 1.98 0.66 3 1 C3 1.33 3 1.66 3 2 C3.33 1.67 3.66 1.34 4 1 C11.45864662 0.63909774 11.45864662 0.63909774 15 3 C15.1875 6.125 15.1875 6.125 15 9 C15.66 9 16.32 9 17 9 C17 9.99 17 10.98 17 12 C17.66 12 18.32 12 19 12 C17.92598892 14.91517292 17.22189824 16.77810176 15 19 C11.26703674 19.38286803 10.22373677 19.14915785 7 17 C6.030625 16.71125 5.06125 16.4225 4.0625 16.125 C0.64477481 14.86950911 -0.90770551 13.97749601 -3 11 C-3.48505011 7.11959911 -3.56851618 4.9238388 -1.5 1.5625 C-1.005 1.046875 -0.51 0.53125 0 0 Z " fill="#8220C1" transform="translate(99,135)"/>
<path d="M0 0 C0.33 0 0.66 0 1 0 C0.96519531 0.96421875 0.93039063 1.9284375 0.89453125 2.921875 C0.85392578 4.81679687 0.85392578 4.81679687 0.8125 6.75 C0.76029297 8.62945312 0.76029297 8.62945312 0.70703125 10.546875 C1.01197061 14.14109357 1.54394629 15.44725126 4 18 C2.68 18.33 1.36 18.66 0 19 C1.98 19.99 3.96 20.98 6 22 C5.67 22.66 5.34 23.32 5 24 C5.66 24.33 6.32 24.66 7 25 C7.33 26.32 7.66 27.64 8 29 C18.23 29 28.46 29 39 29 C38.01 29.495 38.01 29.495 37 30 C37 30.66 37 31.32 37 32 C32.53427636 32.04958948 28.06870039 32.085809 23.6027832 32.10986328 C22.08485114 32.11989545 20.56693827 32.13352438 19.04907227 32.15087891 C16.8620936 32.17525035 14.67537136 32.18651095 12.48828125 32.1953125 C11.17384033 32.20578613 9.85939941 32.21625977 8.50512695 32.22705078 C5.18617411 32.01205976 2.96685993 31.44225823 0 30 C0.66 29.34 1.32 28.68 2 28 C1.21625 27.484375 0.4325 26.96875 -0.375 26.4375 C-4.05261751 23.02256945 -4.86098327 19.7371915 -5.11328125 14.76953125 C-5.12349463 12.84601062 -5.06745139 10.92236476 -5 9 C-4.01 9.495 -4.01 9.495 -3 10 C-2.67 8.35 -2.34 6.7 -2 5 C-1.34 5 -0.68 5 0 5 C0 3.35 0 1.7 0 0 Z " fill="#8C23C1" transform="translate(89,97)"/>
<path d="M0 0 C1.1549921 0.73581742 2.29874185 1.48930039 3.4375 2.25 C4.07558594 2.66765625 4.71367187 3.0853125 5.37109375 3.515625 C8.21039573 6.10299851 8.00504189 9.09502032 8.203125 12.828125 C8.45181796 27.2344368 8.45181796 27.2344368 5 34 C4.67 34.66 4.34 35.32 4 36 C1.03 35.67 -1.94 35.34 -5 35 C-5 34.01 -5 33.02 -5 32 C-4.195625 31.7525 -3.39125 31.505 -2.5625 31.25 C0.171081 30.27761141 0.171081 30.27761141 0.8125 27.875 C0.874375 27.25625 0.93625 26.6375 1 26 C1.66 26 2.32 26 3 26 C2.94815917 22.89446608 2.8531005 19.79172169 2.75 16.6875 C2.73582031 15.80642578 2.72164062 14.92535156 2.70703125 14.01757812 C2.69985071 8.96572734 2.69985071 8.96572734 -0.046875 5.01953125 C-0.69140625 4.68308594 -1.3359375 4.34664063 -2 4 C-2 3.34 -2 2.68 -2 2 C-1.34 2 -0.68 2 0 2 C0 1.34 0 0.68 0 0 Z " fill="#B52D7E" transform="translate(129,87)"/>
<path d="M0 0 C2.4375 0.6875 2.4375 0.6875 5 2 C5.9375 4.5 5.9375 4.5 6 7 C5.34 7.66 4.68 8.32 4 9 C3.83312552 11.58354218 3.83312552 11.58354218 4 14 C5.32 14.66 6.64 15.32 8 16 C8 17.65 8 19.3 8 21 C3.38 21 -1.24 21 -6 21 C-5.67 19.35 -5.34 17.7 -5 16 C-2.9375 14.6875 -2.9375 14.6875 -1 14 C-1.309375 13.0925 -1.61875 12.185 -1.9375 11.25 C-2.288125 10.1775 -2.63875 9.105 -3 8 C-3.433125 6.948125 -3.433125 6.948125 -3.875 5.875 C-4 4 -4 4 -2.0625 1.75 C-1.381875 1.1725 -0.70125 0.595 0 0 Z " fill="#DCA7C0" transform="translate(109,59)"/>
<path d="M0 0 C2.5 0.9375 2.5 0.9375 4.375 3.125 C5.84285648 6.79464119 5.82283192 8.18947622 4.5 11.9375 C0.43174142 17.65916848 -3.71933434 22.04793161 -10.6875 23.6875 C-16.79756943 22.48551913 -20.49226332 18.54934405 -24.5 13.9375 C-26.1317613 11.26441735 -26.31632249 10.18246938 -26.5 6.9375 C-25.125 3.5 -25.125 3.5 -23.5 0.9375 C-22.84 1.2675 -22.18 1.5975 -21.5 1.9375 C-22.49 3.4225 -22.49 3.4225 -23.5 4.9375 C-23.91687446 8.75884917 -24.12308354 11.01533635 -21.9375 14.25 C-18.92430634 16.33605715 -16.03921325 17.06939109 -12.5 17.9375 C-12.17 18.2675 -11.84 18.5975 -11.5 18.9375 C-9.1704053 19.43991322 -9.1704053 19.43991322 -6.5 18.9375 C-3.81256494 16.66676391 -3.81256494 16.66676391 -1.5 13.9375 C-0.901875 13.463125 -0.30375 12.98875 0.3125 12.5 C2.14443328 10.08956148 1.69479285 7.85939274 1.5 4.9375 C-0.81 3.9475 -3.12 2.9575 -5.5 1.9375 C-2.5 -0.0625 -2.5 -0.0625 0 0 Z " fill="#A37DCA" transform="translate(120.5,134.0625)"/>
<path d="M0 0 C2.86724686 0.57344937 3.8614515 0.8614515 6 3 C6.25217118 5.69471291 6.37025884 8.24215124 6.375 10.9375 C6.39949219 11.66646484 6.42398438 12.39542969 6.44921875 13.14648438 C6.46785707 16.53555235 6.46226067 18.47971086 4.1640625 21.06640625 C2 22 2 22 -1 21 C-1.22155127 18.06294869 -1.42774197 15.12619637 -1.625 12.1875 C-1.68945312 11.35412109 -1.75390625 10.52074219 -1.8203125 9.66210938 C-1.871875 8.85966797 -1.9234375 8.05722656 -1.9765625 7.23046875 C-2.02893066 6.49207764 -2.08129883 5.75368652 -2.13525391 4.99291992 C-2 3 -2 3 0 0 Z " fill="#D78EA6" transform="translate(143,94)"/>
<path d="M0 0 C0.66 0.33 1.32 0.66 2 1 C2 7.6 2 14.2 2 21 C0.35 21 -1.3 21 -3 21 C-4 20 -4 20 -4.11352539 18.23413086 C-4.10828857 17.48526611 -4.10305176 16.73640137 -4.09765625 15.96484375 C-4.09443359 15.15595703 -4.09121094 14.34707031 -4.08789062 13.51367188 C-4.07951172 12.66353516 -4.07113281 11.81339844 -4.0625 10.9375 C-4.05798828 10.08349609 -4.05347656 9.22949219 -4.04882812 8.34960938 C-4.03700373 6.23304337 -4.01906769 4.11651315 -4 2 C-2.125 0.9375 -2.125 0.9375 0 0 Z " fill="#8646AA" transform="translate(76,94)"/>
<path d="M0 0 C2.58197003 2.24519133 3.41667364 3.64723636 4 7 C4.48443509 16.04589377 4.89485307 24.63327859 1 33 C-0.60546875 34.7265625 -0.60546875 34.7265625 -2 36 C-2.66 35.67 -3.32 35.34 -4 35 C-3.71125 34.44957031 -3.4225 33.89914063 -3.125 33.33203125 C1.23335851 23.57112417 0.37854471 13.45511382 0 3 C-0.66 3 -1.32 3 -2 3 C-1 1 -1 1 0 0 Z " fill="#C27298" transform="translate(136,89)"/>
<path d="M0 0 C2.875 -0.1875 2.875 -0.1875 6 0 C6.66 0.99 7.32 1.98 8 3 C10.19454681 3.57993699 10.19454681 3.57993699 12.625 3.6875 C13.44226563 3.75324219 14.25953125 3.81898437 15.1015625 3.88671875 C15.72804688 3.92410156 16.35453125 3.96148437 17 4 C17.66 5.98 18.32 7.96 19 10 C19.66 10 20.32 10 21 10 C21 10.66 21 11.32 21 12 C19.04233719 12.08082094 17.08373272 12.13910778 15.125 12.1875 C13.48917969 12.23970703 13.48917969 12.23970703 11.8203125 12.29296875 C10.88960937 12.19628906 9.95890625 12.09960938 9 12 C8.34 11.01 7.68 10.02 7 9 C7.33 8.34 7.66 7.68 8 7 C7.01 6.67 6.02 6.34 5 6 C2.872277 4.12760376 1.59815249 2.39722874 0 0 Z " fill="#8B25AC" transform="translate(88,115)"/>
<path d="M0 0 C5.39636544 0.7297576 10.94403615 0.81097299 16.1953125 -0.703125 C16.1953125 0.286875 16.1953125 1.276875 16.1953125 2.296875 C13.1953125 4.296875 13.1953125 4.296875 10.8828125 3.859375 C9.9959375 3.67375 9.1090625 3.488125 8.1953125 3.296875 C7.37417969 3.44898437 6.55304688 3.60109375 5.70703125 3.7578125 C0.89805935 4.49600841 -3.82303353 4.40215041 -8.6796875 4.359375 C-9.65421875 4.35486328 -10.62875 4.35035156 -11.6328125 4.34570312 C-14.02350184 4.33398406 -16.4140619 4.31757719 -18.8046875 4.296875 C-19.1346875 3.306875 -19.4646875 2.316875 -19.8046875 1.296875 C-13.0460829 0.03290103 -6.83124167 -1.05871642 0 0 Z " fill="#A764A5" transform="translate(113.8046875,113.703125)"/>
<path d="M0 0 C0.99 0.33 1.98 0.66 3 1 C3 1.33 3 1.66 3 2 C3.33 2.66 3.66 3.32 4 4 C3.79375 4.61875 3.5875 5.2375 3.375 5.875 C2.75632605 8.09245731 2.75632605 8.09245731 4.1875 10.1875 C6.15781339 12.15781339 7.28071483 12.62492618 10 13 C10.12375 13.639375 10.2475 14.27875 10.375 14.9375 C10.58125 15.618125 10.7875 16.29875 11 17 C11.66 17.33 12.32 17.66 13 18 C7.74110571 17.24872939 3.017864 16.43374548 -1.375 13.3125 C-3.6662835 10.05182732 -3.48743363 7.89946902 -3 4 C-1.5 1.5625 -1.5 1.5625 0 0 Z " fill="#7822CE" transform="translate(99,135)"/>
<path d="M0 0 C0.99 0 1.98 0 3 0 C1.68 1.32 0.36 2.64 -1 4 C1.31 4.66 3.62 5.32 6 6 C5.3125 7.9375 5.3125 7.9375 4 10 C0.81629958 11.08916067 -1.91985946 11.4869644 -5 10 C-6.25290395 7.55683729 -7 5.75474605 -7 3 C-12.28 2.34 -17.56 1.68 -23 1 C-23 0.67 -23 0.34 -23 0 C-21.86820312 0.01160156 -20.73640625 0.02320312 -19.5703125 0.03515625 C-18.08854331 0.04453454 -16.60677235 0.0536347 -15.125 0.0625 C-14.37863281 0.07087891 -13.63226563 0.07925781 -12.86328125 0.08789062 C-8.04739909 0.10958379 -4.68631146 -1.02870251 0 0 Z " fill="#AE2E96" transform="translate(127,117)"/>
<path d="M0 0 C0.6875 1.75 0.6875 1.75 1 4 C-0.1945787 5.90046612 -1.41843106 7.41843106 -3 9 C-3.28160918 12.34560236 -3.2319204 15.70647471 -3.25 19.0625 C-3.270625 19.99255859 -3.29125 20.92261719 -3.3125 21.88085938 C-3.35419447 29.29726324 -2.18524543 34.72213185 2 41 C-1.91392846 39.46238525 -3.81508076 37.59268225 -6 34 C-6.74388526 30.05218121 -6.87937993 26.13441096 -7 22.125 C-7.06316406 21.06152344 -7.12632813 19.99804688 -7.19140625 18.90234375 C-7.48791961 11.20256146 -6.49774486 6.87250324 -1.25 1.0625 C-0.8375 0.711875 -0.425 0.36125 0 0 Z " fill="#9969A9" transform="translate(87,85)"/>
<path d="M0 0 C1.485 0.99 1.485 0.99 3 2 C3 2.33 3 2.66 3 3 C3.99 3 4.98 3 6 3 C5.67 5.31 5.34 7.62 5 10 C4.34 10 3.68 10 3 10 C3 12.64 3 15.28 3 18 C2.34 17.01 1.68 16.02 1 15 C0.72788877 21.66672502 1.05590577 26.82446598 5.625 31.9375 C6.40875 32.618125 7.1925 33.29875 8 34 C4.71547776 33.43370306 2.98988413 32.71347836 1 30 C-1.18349723 24.02118758 -1.27039585 18.50939942 -1.1875 12.1875 C-1.18685547 11.23423828 -1.18621094 10.28097656 -1.18554688 9.29882812 C-1.14078764 2.28157529 -1.14078764 2.28157529 0 0 Z " fill="#9628A6" transform="translate(84,92)"/>
<path d="M0 0 C0.66 0.33 1.32 0.66 2 1 C4.32416296 1.08586809 6.65083307 1.10711043 8.9765625 1.09765625 C9.66181 1.0962413 10.3470575 1.09482635 11.05307007 1.09336853 C13.24375761 1.08776675 15.4343433 1.07521406 17.625 1.0625 C19.10937352 1.05748522 20.59374865 1.05292228 22.078125 1.04882812 C25.71878315 1.03779677 29.35938164 1.02053099 33 1 C32.34 1.33 31.68 1.66 31 2 C31 2.66 31 3.32 31 4 C20.44 4 9.88 4 -1 4 C-1.33 3.01 -1.66 2.02 -2 1 C-1.34 0.67 -0.68 0.34 0 0 Z " fill="#B074B9" transform="translate(95,125)"/>
<path d="M0 0 C4.09789669 0.37943488 6.53958935 0.69305957 10 3 C7.69 4.32 5.38 5.64 3 7 C3.33 7.99 3.66 8.98 4 10 C3.01 10.33 2.02 10.66 1 11 C1 10.34 1 9.68 1 9 C-0.32 9.33 -1.64 9.66 -3 10 C-3 6.60345276 -2.51816587 2.51816587 0 0 Z " fill="#AD359C" transform="translate(89,86)"/>
<path d="M0 0 C2.4375 1.75 2.4375 1.75 4 4 C3.75 6.25 3.75 6.25 3 8 C2.01 8 1.02 8 0 8 C-0.33 6.68 -0.66 5.36 -1 4 C-2.32 4 -3.64 4 -5 4 C-5.33 5.32 -5.66 6.64 -6 8 C-7.32 7.67 -8.64 7.34 -10 7 C-9.6875 4.625 -9.6875 4.625 -9 2 C-5.50875983 -0.32749345 -4.10777749 -0.50299316 0 0 Z " fill="#9F547B" transform="translate(122,100)"/>
<path d="M0 0 C2.4375 1.375 2.4375 1.375 3.25 4 C3.311875 4.78375 3.37375 5.5675 3.4375 6.375 C1.4575 7.365 1.4575 7.365 -0.5625 8.375 C-0.5625 10.685 -0.5625 12.995 -0.5625 15.375 C-1.2225 15.375 -1.8825 15.375 -2.5625 15.375 C-2.79036458 13.32421875 -3.01822917 11.2734375 -3.24609375 9.22265625 C-3.38136614 7.36359771 -3.38136614 7.36359771 -4.5625 6.375 C-4.60330783 4.37541636 -4.60504356 2.37454746 -4.5625 0.375 C-2.5625 -0.625 -2.5625 -0.625 0 0 Z " fill="#BF627F" transform="translate(111.5625,59.625)"/>
<path d="M0 0 C1.1549921 0.73581742 2.29874185 1.48930039 3.4375 2.25 C4.07558594 2.66765625 4.71367187 3.0853125 5.37109375 3.515625 C7.35985937 5.3279294 7.64543022 6.360425 8 9 C8.12205329 11.67540816 8.04467313 14.31961238 8 17 C7.01 17 6.02 17 5 17 C4.82984375 16.31292969 4.6596875 15.62585938 4.484375 14.91796875 C4.24203125 14.01691406 3.9996875 13.11585937 3.75 12.1875 C3.51796875 11.29417969 3.2859375 10.40085937 3.046875 9.48046875 C1.8340112 6.60670565 0.52238001 5.73543914 -2 4 C-2 3.34 -2 2.68 -2 2 C-1.34 2 -0.68 2 0 2 C0 1.34 0 0.68 0 0 Z " fill="#DF2D67" transform="translate(129,87)"/>
<path d="M0 0 C2.5 0.9375 2.5 0.9375 4.375 3.125 C5.84285648 6.79464119 5.82283192 8.18947622 4.5 11.9375 C2.42165899 14.86944536 0.22893619 17.58989987 -2.5 19.9375 C-3.49 19.9375 -4.48 19.9375 -5.5 19.9375 C-4.51 18.4525 -4.51 18.4525 -3.5 16.9375 C-3.5 16.2775 -3.5 15.6175 -3.5 14.9375 C-2.675 14.36 -1.85 13.7825 -1 13.1875 C1.85082131 11.13146698 1.85082131 11.13146698 1.8125 7.6875 C1.709375 6.78 1.60625 5.8725 1.5 4.9375 C-0.81 3.9475 -3.12 2.9575 -5.5 1.9375 C-2.5 -0.0625 -2.5 -0.0625 0 0 Z " fill="#9C65AA" transform="translate(120.5,134.0625)"/>
<path d="M0 0 C3.4375 0.8125 3.4375 0.8125 5.4375 3.8125 C5.4375 5.1325 5.4375 6.4525 5.4375 7.8125 C4.1175 7.8125 2.7975 7.8125 1.4375 7.8125 C1.4375 6.8225 1.4375 5.8325 1.4375 4.8125 C-0.2125 4.4825 -1.8625 4.1525 -3.5625 3.8125 C-3.8925 5.1325 -4.2225 6.4525 -4.5625 7.8125 C-5.5525 7.8125 -6.5425 7.8125 -7.5625 7.8125 C-7.25 4.9375 -7.25 4.9375 -6.5625 1.8125 C-3.5625 -0.1875 -3.5625 -0.1875 0 0 Z " fill="#B080A6" transform="translate(102.5625,100.1875)"/>
<path d="M0 0 C0 0.66 0 1.32 0 2 C0.66 2.33 1.32 2.66 2 3 C0.81921875 3.04898438 -0.3615625 3.09796875 -1.578125 3.1484375 C-3.13543937 3.22348879 -4.69272991 3.29903561 -6.25 3.375 C-7.02730469 3.4059375 -7.80460937 3.436875 -8.60546875 3.46875 C-14.07379907 3.72658242 -14.07379907 3.72658242 -19 6 C-19 2 -19 2 -17 0 C-11.10525189 -1.13758297 -5.9137015 -0.88979305 0 0 Z " fill="#8D51A9" transform="translate(118,133)"/>
<path d="M0 0 C1.32 0.66 2.64 1.32 4 2 C4.21755666 7.4389165 4.10428384 11.87080814 2 17 C0.35 17 -1.3 17 -3 17 C-2.68289062 16.30519531 -2.36578125 15.61039063 -2.0390625 14.89453125 C-0.90598948 11.73811356 -0.59519989 9.02719833 -0.375 5.6875 C-0.30023438 4.61886719 -0.22546875 3.55023438 -0.1484375 2.44921875 C-0.09945312 1.64097656 -0.05046875 0.83273438 0 0 Z " fill="#CA3278" transform="translate(133,102)"/>
<path d="M0 0 C8.91 0 17.82 0 27 0 C27 0.33 27 0.66 27 1 C21.72 1 16.44 1 11 1 C10.67 1.66 10.34 2.32 10 3 C8.14453125 3.4140625 8.14453125 3.4140625 5.8125 3.625 C4.60207031 3.73521484 4.60207031 3.73521484 3.3671875 3.84765625 C0.57206381 4.02754045 -2.20015534 4.07179089 -5 4 C-5 3.34 -5 2.68 -5 2 C-3.35 2 -1.7 2 0 2 C0 1.34 0 0.68 0 0 Z " fill="#A93276" transform="translate(93,83)"/>
<path d="M0 0 C0.66 0 1.32 0 2 0 C2 4.62 2 9.24 2 14 C0.68 14 -0.64 14 -2 14 C-2.05437607 12.41705218 -2.09296271 10.83355744 -2.125 9.25 C-2.14820313 8.36828125 -2.17140625 7.4865625 -2.1953125 6.578125 C-1.99139502 3.8864142 -1.36551721 2.30095026 0 0 Z " fill="#BE3463" transform="translate(145,100)"/>
<path d="M0 0 C0.89589844 -0.01417969 1.79179688 -0.02835937 2.71484375 -0.04296875 C5.0625 0.1875 5.0625 0.1875 7.0625 2.1875 C5.5 4.25 5.5 4.25 3.0625 6.1875 C-0.5625 6.1875 -0.5625 6.1875 -3.9375 5.1875 C-5.375 3.125 -5.375 3.125 -5.9375 1.1875 C-4.27188601 -0.47811399 -2.27787295 0.01634055 0 0 Z " fill="#AA3F8F" transform="translate(125.9375,121.8125)"/>
<path d="M0 0 C0.99 0.33 1.98 0.66 3 1 C2.34 1.66 1.68 2.32 1 3 C1 3.99 1 4.98 1 6 C0.68911632 7.67099977 0.35919668 9.33871537 0 11 C0.66 11.33 1.32 11.66 2 12 C2 12.66 2 13.32 2 14 C2.99 14.33 3.98 14.66 5 15 C4.01 15.33 3.02 15.66 2 16 C-1.37648267 13.2144018 -2.88016043 11.85385691 -3.5 7.4375 C-2.99318044 3.95311553 -2.40096632 2.50100658 0 0 Z " fill="#652AA4" transform="translate(99,135)"/>
<path d="M0 0 C0.33 0 0.66 0 1 0 C0.96519531 0.96421875 0.93039063 1.9284375 0.89453125 2.921875 C0.86746094 4.18515625 0.84039062 5.4484375 0.8125 6.75 C0.77769531 8.00296875 0.74289063 9.2559375 0.70703125 10.546875 C1.01197061 14.14109357 1.54394629 15.44725126 4 18 C1 19 1 19 -2 18 C-2 13.71 -2 9.42 -2 5 C-1.34 5 -0.68 5 0 5 C0 3.35 0 1.7 0 0 Z " fill="#A663B6" transform="translate(89,97)"/>
<path d="M0 0 C1.83626701 2.70039267 1.99597623 4.11065361 1.875 7.4375 C0.93509065 11.26427377 -0.32964466 13.15736367 -3 16 C-3.66 15.67 -4.32 15.34 -5 15 C-4.72285156 14.25234375 -4.44570312 13.5046875 -4.16015625 12.734375 C-3.79792969 11.74953125 -3.43570313 10.7646875 -3.0625 9.75 C-2.52302734 8.28820312 -2.52302734 8.28820312 -1.97265625 6.796875 C-1.18620345 4.53542839 -0.52748399 2.33203448 0 0 Z " fill="#B46496" transform="translate(137,109)"/>
<path d="M0 0 C1.921875 0.18359375 1.921875 0.18359375 4 1 C5.74821262 1.36288656 7.49831326 1.71677235 9.25 2.0625 C10.14203125 2.23910156 11.0340625 2.41570312 11.953125 2.59765625 C12.62859375 2.73042969 13.3040625 2.86320312 14 3 C14 3.33 14 3.66 14 4 C8.06 4 2.12 4 -4 4 C-2.68 2.68 -1.36 1.36 0 0 Z " fill="#B22D81" transform="translate(96,89)"/>
<path d="M0 0 C0.6875 1.75 0.6875 1.75 1 4 C-0.3125 6.25 -0.3125 6.25 -2 8 C-2.66 8 -3.32 8 -4 8 C-4.33 9.32 -4.66 10.64 -5 12 C-5.66 12 -6.32 12 -7 12 C-5.63855967 6.80177328 -3.53269829 3.90456127 0 0 Z " fill="#B984B2" transform="translate(87,85)"/>
<path d="M0 0 C0.33 0 0.66 0 1 0 C1.15855469 0.88042969 1.31710938 1.76085937 1.48046875 2.66796875 C3.12949792 11.58704626 3.12949792 11.58704626 9 18 C5.71547776 17.43370306 3.98988413 16.71347836 2 14 C0.24927123 9.20853178 -0.2074288 5.08200552 0 0 Z " fill="#6E2A99" transform="translate(83,108)"/>
<path d="M0 0 C0 0.66 0 1.32 0 2 C1.32 1.67 2.64 1.34 4 1 C4 1.66 4 2.32 4 3 C0.7 3.33 -2.6 3.66 -6 4 C-6 2.68 -6 1.36 -6 0 C-3 -1 -3 -1 0 0 Z " fill="#AD5C7F" transform="translate(109,76)"/>
<path d="M0 0 C5.23175837 -0.38281159 8.37802694 0.78145293 13 3 C13 3.99 13 4.98 13 6 C12.34 5.34 11.68 4.68 11 4 C8.34280163 3.31822002 8.34280163 3.31822002 5.375 2.875 C3.87066406 2.62363281 3.87066406 2.62363281 2.3359375 2.3671875 C1.56507812 2.24601562 0.79421875 2.12484375 0 2 C0 1.34 0 0.68 0 0 Z " fill="#CB6885" transform="translate(122,83)"/>
<path d="M0 0 C2.00720923 0.28674418 4.0085944 0.61866701 6 1 C5.360625 1.61875 4.72125 2.2375 4.0625 2.875 C1.96116416 4.82597612 1.96116416 4.82597612 1 7 C0.01 7 -0.98 7 -2 7 C-1.125 1.125 -1.125 1.125 0 0 Z " fill="#84577E" transform="translate(97,101)"/>
<path d="M0 0 C0.99 0.33 1.98 0.66 3 1 C4 4 4 4 3 7 C2.01 7 1.02 7 0 7 C-0.33 5.68 -0.66 4.36 -1 3 C-2.32 2.67 -3.64 2.34 -5 2 C-3.35 2 -1.7 2 0 2 C0 1.34 0 0.68 0 0 Z " fill="#BA81A2" transform="translate(122,101)"/>
<path d="M0 0 C3.37462715 0.54723683 5.08235 1.0549 8 3 C4.04 4.98 4.04 4.98 0 7 C-1.04449911 3.86650268 -0.93423645 3.01031744 0 0 Z " fill="#BA2A98" transform="translate(91,86)"/>
<path d="M0 0 C0 0.99 0 1.98 0 3 C-3 5 -3 5 -5.26171875 4.7578125 C-6.06222656 4.54898438 -6.86273438 4.34015625 -7.6875 4.125 C-8.49574219 3.92132813 -9.30398437 3.71765625 -10.13671875 3.5078125 C-10.75160156 3.34023437 -11.36648437 3.17265625 -12 3 C-12 2.67 -12 2.34 -12 2 C-10.37548581 1.66430703 -8.75037083 1.3315204 -7.125 1 C-6.22007813 0.814375 -5.31515625 0.62875 -4.3828125 0.4375 C-2 0 -2 0 0 0 Z " fill="#C682B5" transform="translate(130,113)"/>
<path d="M0 0 C0 0.33 0 0.66 0 1 C-5.37305699 2.67357513 -5.37305699 2.67357513 -8 3 C-10 1.625 -10 1.625 -11 0 C-6.94952424 -1.35015859 -4.2079832 -0.62084998 0 0 Z " fill="#AC22A5" transform="translate(117,119)"/>
<path d="M0 0 C1.98 0.99 1.98 0.99 4 2 C4 3.98 4 5.96 4 8 C3.01 8 2.02 8 1 8 C-0.35439668 5.29120665 -0.06501451 2.99066732 0 0 Z " fill="#D83471" transform="translate(133,96)"/>
<path d="M0 0 C0.33 0 0.66 0 1 0 C1.12375 0.78375 1.2475 1.5675 1.375 2.375 C1.79117993 5.14057822 1.79117993 5.14057822 4 7 C3.01 7 2.02 7 1 7 C0.67 7.99 0.34 8.98 0 10 C-0.66 10 -1.32 10 -2 10 C-2.66 8.68 -3.32 7.36 -4 6 C-2.68 6.33 -1.36 6.66 0 7 C0 4.69 0 2.38 0 0 Z " fill="#D7769F" transform="translate(111,68)"/>
<path d="M0 0 C0 3 0 3 -1.3125 4.60546875 C-1.869375 5.12753906 -2.42625 5.64960938 -3 6.1875 C-3.556875 6.71730469 -4.11375 7.24710938 -4.6875 7.79296875 C-5.120625 8.19128906 -5.55375 8.58960938 -6 9 C-6.66 8.67 -7.32 8.34 -8 8 C-7.34 7.01 -6.68 6.02 -6 5 C-6 4.34 -6 3.68 -6 3 C-5.38125 2.87625 -4.7625 2.7525 -4.125 2.625 C-1.80879168 2.12802644 -1.80879168 2.12802644 0 0 Z " fill="#CAABDD" transform="translate(123,146)"/>
<path d="M0 0 C2.125 0.9375 2.125 0.9375 4 2 C3.34 3.32 2.68 4.64 2 6 C0.35 5.67 -1.3 5.34 -3 5 C-2.34 4.34 -1.68 3.68 -1 3 C-1.33 2.34 -1.66 1.68 -2 1 C-1.34 0.67 -0.68 0.34 0 0 Z " fill="#9851BF" transform="translate(92,122)"/>
<path d="M0 0 C0.33 0 0.66 0 1 0 C1.04241723 2.33294775 1.04092937 4.66702567 1 7 C0.67 7.33 0.34 7.66 0 8 C-0.36760731 10.32817964 -0.70241581 12.6618385 -1 15 C-1.33 15 -1.66 15 -2 15 C-2 11.7 -2 8.4 -2 5 C-1.34 5 -0.68 5 0 5 C0 3.35 0 1.7 0 0 Z " fill="#9F5DA9" transform="translate(89,97)"/>
<path d="M0 0 C0.66 0 1.32 0 2 0 C3.0625 1.875 3.0625 1.875 4 4 C3.67 4.66 3.34 5.32 3 6 C1.68 5.67 0.36 5.34 -1 5 C-0.67 3.35 -0.34 1.7 0 0 Z " fill="#AD7B9F" transform="translate(113,102)"/>
<path d="M0 0 C0.99 0 1.98 0 3 0 C2.67 2.31 2.34 4.62 2 7 C1.34 7 0.68 7 0 7 C-0.38133299 5.0085944 -0.71325582 3.00720923 -1 1 C-0.67 0.67 -0.34 0.34 0 0 Z " fill="#8A2587" transform="translate(87,95)"/>
<path d="M0 0 C4.55384615 -0.36923077 4.55384615 -0.36923077 6.8125 1.5 C7.204375 1.995 7.59625 2.49 8 3 C7.67 3.66 7.34 4.32 7 5 C4.11562221 3.70700306 2.12780579 2.34058637 0 0 Z " fill="#BF4168" transform="translate(128,86)"/>
<path d="M0 0 C0.99 0 1.98 0 3 0 C3 0.99 3 1.98 3 3 C3.99 3 4.98 3 6 3 C5.67 4.32 5.34 5.64 5 7 C4.67 6.34 4.34 5.68 4 5 C3.34 5 2.68 5 2 5 C2 4.01 2 3.02 2 2 C1.34 2 0.68 2 0 2 C0 1.34 0 0.68 0 0 Z " fill="#8821B2" transform="translate(114,142)"/>
<path d="M0 0 C0.99 0 1.98 0 3 0 C3 1.65 3 3.3 3 5 C1.35 5 -0.3 5 -2 5 C-1.34 3.35 -0.68 1.7 0 0 Z " fill="#CA2A84" transform="translate(132,114)"/>
<path d="M0 0 C0.99 0.33 1.98 0.66 3 1 C3 2.32 3 3.64 3 5 C1.68 5 0.36 5 -1 5 C-0.67 3.35 -0.34 1.7 0 0 Z " fill="#9F718F" transform="translate(105,103)"/>
<path d="M0 0 C1.5625 1.25 1.5625 1.25 3 3 C2.6875 5.1875 2.6875 5.1875 2 7 C1.34 7 0.68 7 0 7 C0 5.68 0 4.36 0 3 C-0.66 3 -1.32 3 -2 3 C-1 1 -1 1 0 0 Z " fill="#D4819D" transform="translate(136,89)"/>
</svg>
